# AST/ASF file generated using VICON BodyLanguage
# -----------------------------------------------
:version 1.10
:name VICON
:units
  mass 1.0
  length 0.45
  angle deg
:documentation
   .ast/.asf automatically generated from VICON data using
   VICON BodyBuilder and BodyLanguage model FoxedUp or BRILLIANT.MOD
:root
   order TX TY TZ RX RY RZ
   axis XYZ
   position 0 0 0  
   orientation 0 0 0 
:bonedata
  begin
     id 1 
     name lhipjoint
     direction 0.627412 -0.730575 0.26947 
     length 2.49821 
     axis 0 0 0  XYZ
  end
  begin
     id 2 
     name lfemur
     direction 0.34202 -0.939693 0  
     length 6.89165  
     axis 0 0 20  XYZ
    dof rx ry rz
    limits (-160.0 20.0)
           (-70.0 70.0)
           (-60.0 70.0)
  end
  begin
     id 3 
     name ltibia
     direction 0.34202 -0.939693 0   
     length 7.91287   
     axis 0 0 20   XYZ
    dof rx
    limits (-10.0 170.0)
  end
  begin
     id 4 
     name lfoot
     direction 0.0941675 -0.258723 0.96135   
     length 2.16919   
     axis -90 7.62852e-016 20   XYZ
    dof rx rz
    limits (-45.0 90.0)
           (-70.0 20.0)
  end
  begin
     id 5 
     name ltoes
     direction 1.5347e-011 -4.21941e-011 1   
     length 1.08535   
     axis -90 7.62852e-016 20   XYZ
    dof rx
    limits (-90.0 20.0)
  end
  begin
     id 6 
     name rhipjoint
     direction -0.614241 -0.740361 0.27308   
     length 2.46519  
     axis 0 0 0  XYZ 
  end
  begin
     id 7 
     name rfemur
     direction -0.34202 -0.939693 0   
     length 7.27512   
     axis 0 0 -20   XYZ
    dof rx ry rz
    limits (-160.0 20.0)
           (-70.0 70.0)
           (-70.0 60.0)
  end
  begin
     id 8 
     name rtibia
     direction -0.34202 -0.939693 0   
     length 7.89523   
     axis 0 0 -20   XYZ
    dof rx
    limits (-10.0 170.0)
 end
 begin
     id 9 
     name rfoot
     direction -0.0860444 -0.236405 0.967837   
     length 2.29534  
     axis -90 -7.62852e-016 -20   XYZ
    dof rx rz
    limits (-45.0 90.0)
           (-20.0 70.0)
  end
  begin
     id 10 
     name rtoes
     direction -1.53608e-011 -4.21861e-011 1   
     length 1.14915   
     axis -90 -7.62852e-016 -20   XYZ
    dof rx
    limits (-90.0 20.0)
  end
  begin
     id 11 
     name lowerback
     direction -0.00734074 0.997215 -0.0742143   
     length 2.13469   
     axis 0 0 0   XYZ
    dof rx ry rz
    limits (-20.0 45.0)
           (-30.0 30.0)
           (-30.0 30.0)
  end
  begin
     id 12 
     name upperback
     direction 0.0285728 0.99958 -0.00488656   
     length 2.13416   
     axis 0 0 0   XYZ
    dof rx ry rz
    limits (-20.0 45.0)
           (-30.0 30.0)
           (-30.0 30.0)
  end
  begin
     id 13 
     name thorax
     direction 0.0316844 0.999056 0.0297249   
     length 2.14463   
     axis 0 0 0   XYZ
    dof rx ry rz
    limits (-20.0 45.0)
           (-30.0 30.0)
           (-30.0 30.0)
  end
  begin
     id 14 
     name lowerneck
     direction -0.0281545 0.996802 0.0747864   
     length 1.79004   
     axis 0 0 0   XYZ
    dof rx ry rz
    limits (-20.0 45.0)
           (-30.0 30.0)
           (-30.0 30.0)
  end
  begin
     id 15 
     name upperneck
     direction -0.00100185 0.982732 -0.185031   
     length 1.79988   
     axis 0 0 0   XYZ
    dof rx ry rz
    limits (-20.0 45.0)
           (-30.0 30.0)
           (-30.0 30.0)
  end
  begin
     id 16
     name head
     direction 0.00403747 0.997539 -0.0700022  
     length 1.81696  
     axis 0 0 0   XYZ
    dof rx ry rz
    limits (-20.0 45.0)
           (-30.0 30.0)
           (-30.0 30.0)
  end
  begin
     id 17 
     name lclavicle
     direction 0.959882 0.242905 -0.140082  
     length 3.87755  
     axis 0 0 0   XYZ
    dof ry rz
    limits (-20.0 10.0)
           (0.0 20.0)
  end
  begin
     id 18 
     name lhumerus
     direction 1 -4.4895e-011 3.76166e-027   
     length 5.14601   
     axis 180 -30 -90   XYZ
    dof rx ry rz
    limits (-60.0 90.0)
           (-90.0 90.0)
           (-90.0 90.0)
  end
  begin
     id 19
     name lradius
     direction 1 -4.48966e-011 -3.24039e-027   
     length 3.64452   
     axis 180 -30 -90   XYZ
    dof rx
    limits (-10.0 170.0)
  end
  begin
     id 20
     name lwrist
     direction 1 -4.48999e-011 2.57119e-027   
     length 1.82226   
     axis -1.61769e-015 90 90   XYZ
    dof ry
    limits (-180.0 0.0)
 end
  begin
     id 21 
     name lhand
     direction 1 -4.48961e-011 5.13984e-027   
     length 0.56228   
     axis -3.27988e-015 90 90   XYZ
    dof rx rz
    limits (-90.0 90.0)
           (-45.0 45.0)
  end
  begin
     id 22 
     name lfingers
     direction 1 -4.48991e-011 1.02836e-026   
     length 0.453325   
     axis -6.5598e-015 90 90   XYZ
    dof rx
    limits (0.0 90.0)
  end
  begin
     id 23
     name lthumb
     direction 0.707107 -6.34956e-011 0.707107   
     length 0.650886   
     axis -90 45 2.19363e-014   XYZ
    dof rx rz
    limits (-45.0 45.0)
           (-45.0 45.0)
  end
  begin
     id 24 
     name rclavicle
     direction -0.929201 0.345171 -0.132073   
     length 3.55416  
     axis 0 0 0   XYZ 
    dof ry rz
    limits (-10.0 20.0)
           (-20.0 0.0)
  end
  begin
     id 25 
     name rhumerus
     direction -1 -4.48979e-011 4.53734e-027  
     length 5.33913   
     axis 180 30 90   XYZ
    dof rx ry rz
    limits (-90.0 60.0)
           (-90.0 90.0)
           (-90.0 90.0)
  end
  begin
     id 26 
     name rradius
     direction -1 -4.4896e-011 -2.24007e-027   
     length 3.56478   
     axis 180 30 90   XYZ
    dof rx
    limits (-10.0 170.0)
  end
  begin
     id 27 
     name rwrist
     direction -1 -4.48923e-011 2.56866e-027   
     length 1.78239   
     axis -1.61769e-015 -90 -90   XYZ
    dof ry
    limits (-180.0 0.0)
  end
  begin
     id 28
     name rhand
     direction -1 -4.48914e-011 5.13667e-027   
     length 0.857474   
     axis -3.27988e-015 -90 -90   XYZ
    dof rx rz
    limits (-90.0 90.0)
           (-45.0 45.0)
  end
  begin
     id 29
     name rfingers
     direction -1 -4.49112e-011 1.02998e-026   
     length 0.691318   
     axis -6.5598e-015 -90 -90   XYZ
    dof rx
    limits (0.0 90.0)
  end
  begin
     id 30
     name rthumb
     direction -0.707107 -6.34979e-011 0.707107   
     length 0.992598   
     axis -90 -45 -2.19363e-014   XYZ
    dof rx rz
    limits (-45.0 45.0)
           (-45.0 45.0)
  end
:hierarchy
  begin
    root lhipjoint rhipjoint lowerback
    lhipjoint lfemur
    lfemur ltibia
    ltibia lfoot
    lfoot ltoes
    rhipjoint rfemur
    rfemur rtibia
    rtibia rfoot
    rfoot rtoes
    lowerback upperback
    upperback thorax
    thorax lowerneck lclavicle rclavicle
    lowerneck upperneck
    upperneck head
    lclavicle lhumerus
    lhumerus lradius
    lradius lwrist
    lwrist lhand lthumb
    lhand lfingers
    rclavicle rhumerus
    rhumerus rradius
    rradius rwrist
    rwrist rhand rthumb
    rhand rfingers
  end

#!OML:ASF F:\VICON\USERDATA\INSTALL\Justin4\Justin4.ASF
:FULLY-SPECIFIED
:DEGREES
870
root -11.9043 15.9659 8.15355 6.02075 -27.0413 3.16865
lowerback 14.7492 -7.46859 -7.96684
upperback 1.13713 -11.0094 3.041
thorax -4.83504 -5.27043 9.5691
lowerneck -16.1974 5.27445 -8.21838
upperneck 8.43474 9.07488 -2.334
head 4.91904 3.96812 1.33742
rclavicle -1.38714e-014 -7.42958e-015
rhumerus -41.8622 8.92568 -85.3679
rradius 99.3095
rwrist -19.4979
rhand 15.6001 14.73
rfingers 7.12502
rthumb 40.4162 -10.3691
lclavicle -1.38714e-014 -7.42958e-015
lhumerus 4.55202 -49.4066 95.8431
lradius 90.4546
lwrist 0.998978
lhand 3.0048 10.7156
lfingers 7.12502
lthumb 28.4651 38.57
rfemur -52.1216 -2.83158 8.32714
rtibia 59.8182
rfoot -12.6103 19.057
rtoes 8.4073
lfemur 15.2737 -4.90132 -11.5913
ltibia 27.8746
lfoot -2.23679 -10.5523
ltoes -25.5566
871
root -11.9443 16.1136 8.11796 6.32687 -25.3961 3.09261
lowerback 14.2997 -7.54556 -7.29286
upperback 1.27823 -10.9676 3.02578
thorax -4.57609 -5.28527 9.09024
lowerneck -16.6178 5.14994 -8.00813
upperneck 8.59184 8.90733 -2.23794
head 5.04462 3.88874 1.3395
rclavicle -1.83043e-013 -1.08244e-015
rhumerus -41.8243 6.74399 -83.9116
rradius 101.816
rwrist -21.9028
rhand 17.8145 14.9074
rfingers 7.12502
rthumb 42.4939 -9.51494
lclavicle -1.83043e-013 -1.08244e-015
lhumerus 0.620694 -48.8948 98.0492
lradius 91.8027
lwrist 2.4194
lhand 3.83093 10.7554
lfingers 7.12502
lthumb 29.2543 38.4752
rfemur -50.9909 -3.97557 8.6505
rtibia 58.1858
rfoot -11.7789 19.2993
rtoes 9.0424
lfemur 13.9205 -5.52989 -10.7537
ltibia 27.9088
lfoot 0.474645 -11.251
ltoes -24.5107
872
root -11.984 16.2532 8.07442 6.28819 -24.0867 3.35159
lowerback 13.8443 -7.36596 -7.04984
upperback 1.60169 -10.6671 2.75739
thorax -4.1386 -5.1785 8.52801
lowerneck -17.4013 4.76647 -7.26277
upperneck 9.07355 8.33527 -2.2183
head 5.36778 3.60592 1.22078
rclavicle -2.75503e-014 -2.01704e-014
rhumerus -41.5377 4.54177 -82.3968
rradius 104.551
rwrist -21.9658
rhand 18.5234 15.3609
rfingers 7.12502
rthumb 43.1571 -8.82927
lclavicle -2.75503e-014 -2.01704e-014
lhumerus -2.43512 -48.674 99.1674
lradius 93.1074
lwrist 4.08044
lhand 3.61273 11.2292
lfingers 7.12502
lthumb 29.0459 38.985
rfemur -49.7385 -4.86846 8.60509
rtibia 56.4291
rfoot -10.7718 19.4681
rtoes 10.0805
lfemur 12.816 -5.9469 -10.4102
ltibia 28.0219
lfoot 2.91036 -11.8515
ltoes -24.6908
873
root -12.0138 16.3871 8.02321 6.09244 -22.7957 3.55399
lowerback 14.0723 -7.08774 -7.04957
upperback 1.74343 -10.313 2.62751
thorax -4.20243 -5.00145 8.37611
lowerneck -18.0054 4.26181 -6.74384
upperneck 9.58553 7.59737 -2.00846
head 5.65614 3.2548 1.16913
rclavicle 1.25067e-013 -2.19409e-014
rhumerus -41.3457 2.78562 -80.5466
rradius 107.745
rwrist -20.8705
rhand 18.9476 15.6792
rfingers 7.12502
rthumb 43.5535 -8.36825
lclavicle 1.25067e-013 -2.19409e-014
lhumerus -4.82552 -48.555 99.7032
lradius 94.309
lwrist 5.90633
lhand 0.300124 11.5406
lfingers 7.12502
lthumb 25.8778 39.7997
rfemur -48.2475 -5.758 8.55438
rtibia 54.5746
rfoot -9.57657 19.3091
rtoes 11.4303
lfemur 11.905 -6.19517 -10.0376
ltibia 28.2044
lfoot 4.86078 -12.6397
ltoes -25.9853
874
root -12.0305 16.5412 7.96473 5.91504 -20.9935 3.61842
lowerback 15.2199 -7.05691 -7.24518
upperback 1.12432 -10.3701 2.9816
thorax -5.37885 -4.92437 9.12676
lowerneck -16.8432 4.04457 -7.10915
upperneck 9.64583 7.25276 -1.69344
head 5.4705 3.11178 1.26452
rclavicle 8.17999e-014 -3.53837e-014
rhumerus -41.2773 1.91629 -77.9889
rradius 110.818
rwrist -19.4593
rhand 19.8548 16.1611
rfingers 7.12502
rthumb 44.3997 -7.57103
lclavicle 8.17999e-014 -3.53837e-014
lhumerus -7.82504 -47.9726 100.87
lradius 95.7791
lwrist 7.78201
lhand -3.63353 12.0492
lfingers 7.12502
lthumb 22.1058 40.8055
rfemur -46.4893 -7.01596 8.56412
rtibia 52.6289
rfoot -8.1964 19.2573
rtoes 13.0528
lfemur 10.8078 -6.75778 -9.42175
ltibia 28.2411
lfoot 7.29973 -13.2724
ltoes -24.7801
875
root -12.0518 16.6958 7.92522 5.77749 -19.1135 3.75704
lowerback 15.6032 -6.80861 -7.14885
upperback 0.913395 -10.0503 3.0125
thorax -5.8904 -4.72337 9.15431
lowerneck -16.0115 3.48375 -7.23966
upperneck 9.69581 6.41484 -1.34384
head 5.35762 2.73455 1.30346
rclavicle -3.11595e-014 -3.97569e-016
rhumerus -39.3562 -0.971858 -75.4023
rradius 112.848
rwrist -16.973
rhand 20.8734 17.5058
rfingers 7.12502
rthumb 45.3478 -5.85545
lclavicle -3.11595e-014 -3.97569e-016
lhumerus -10.4546 -47.2476 102.685
lradius 96.3716
lwrist 7.42064
lhand -2.29138 12.1604
lfingers 7.12502
lthumb 23.3939 40.7586
rfemur -44.6158 -8.23735 8.3409
rtibia 50.5803
rfoot -6.84715 19.2366
rtoes 14.0145
lfemur 9.42082 -7.30218 -8.90402
ltibia 28.8198
lfoot 9.36481 -13.1652
ltoes -20.5149
876
root -12.0822 16.8372 7.92483 5.48361 -17.8866 4.08365
lowerback 14.2231 -6.50553 -6.72049
upperback 1.59314 -9.51677 2.30148
thorax -4.70462 -4.57197 7.80088
lowerneck -15.6239 2.82891 -6.77491
upperneck 9.46659 5.3095 -0.642479
head 5.24298 2.28172 1.34619
rclavicle -1.04213e-013 4.87022e-015
rhumerus -36.2123 -4.79841 -73.8901
rradius 114.812
rwrist -14.3368
rhand 20.9286 18.4952
rfingers 7.12502
rthumb 45.3991 -4.8454
lclavicle -1.04213e-013 4.87022e-015
lhumerus -11.2756 -47.3766 102.126
lradius 97.0531
lwrist 5.42996
lhand 0.392678 11.9877
lfingers 7.12502
lthumb 25.9664 40.2338
rfemur -42.6737 -9.13188 7.74148
rtibia 48.5045
rfoot -5.27462 19.8124
rtoes 15.0505
lfemur 8.52553 -7.2264 -8.84766
ltibia 29.6087
lfoot 10.6358 -12.669
ltoes -15.9074
877
root -12.1114 16.9831 7.76768 6.54691 -16.8713 2.55601
lowerback 14.5089 -6.06373 -5.88112
upperback 1.23102 -8.79412 2.79603
thorax -5.41951 -4.17638 7.85217
lowerneck -14.6282 2.40601 -6.87954
upperneck 9.27577 4.58549 0.104735
head 5.02019 1.9933 1.51637
rclavicle 8.94531e-016 -3.97569e-015
rhumerus -33.3522 -7.61625 -71.6585
rradius 117.297
rwrist -13.298
rhand 20.347 18.2713
rfingers 7.12502
rthumb 44.8582 -5.2839
lclavicle 8.94531e-016 -3.97569e-015
lhumerus -12.2591 -46.6176 102.337
lradius 97.9384
lwrist 4.2233
lhand 2.71633 11.4316
lfingers 7.12502
lthumb 28.1895 39.3319
rfemur -42.2744 -7.57495 8.99475
rtibia 46.2496
rfoot -2.8307 18.4397
rtoes 14.2616
lfemur 5.84642 -6.31459 -6.04877
ltibia 30.7263
lfoot 12.4802 -13.4258
ltoes -14.5719
878
root -12.1207 17.1384 7.66313 6.75296 -15.4839 2.28122
lowerback 15.3324 -5.45202 -6.22073
upperback 0.707013 -8.05452 3.36776
thorax -6.42921 -3.72154 8.71431
lowerneck -13.7967 1.81166 -7.45445
upperneck 9.55081 3.77812 0.595991
head 4.97879 1.60731 1.68856
rclavicle 3.52843e-014 -1.11319e-014
rhumerus -29.937 -10.8328 -68.4195
rradius 119.524
rwrist -13.4499
rhand 19.4601 17.4371
rfingers 7.12502
rthumb 44.0318 -6.43394
lclavicle 3.52843e-014 -1.11319e-014
lhumerus -13.0885 -45.9576 103.574
lradius 98.9746
lwrist 4.28601
lhand 4.94378 10.7124
lfingers 7.12502
lthumb 30.3163 38.2419
rfemur -41.0509 -7.00949 8.64452
rtibia 44.0071
rfoot -0.56455 18.0544
rtoes 12.0284
lfemur 3.76828 -6.25779 -5.07553
ltibia 31.8817
lfoot 14.1511 -13.405
ltoes -16.2879
879
root -12.1205 17.2914 7.59071 6.71213 -14.3845 2.20958
lowerback 14.7862 -5.00499 -5.7095
upperback 1.07918 -7.36529 2.9892
thorax -5.9693 -3.43815 7.80529
lowerneck -13.3808 1.1727 -7.09553
upperneck 9.31123 2.72137 1.38241
head 4.86917 1.16685 1.78876
rclavicle -1.07642e-013 5.1684e-015
rhumerus -24.9143 -15.1787 -67.4721
rradius 121.017
rwrist -13.5461
rhand 17.9312 16.4779
rfingers 7.12502
rthumb 42.6032 -7.90676
lclavicle -1.07642e-013 5.1684e-015
lhumerus -12.3202 -46.4325 102.375
lradius 99.8797
lwrist 2.57728
lhand 3.61226 9.96066
lfingers 7.12502
lthumb 29.0455 37.7166
rfemur -39.5234 -6.29723 7.87456
rtibia 41.6773
rfoot 1.19248 17.8786
rtoes 8.03488
lfemur 1.99283 -6.18527 -4.63734
ltibia 33.297
lfoot 15.2502 -12.0943
ltoes -17.9844
880
root -12.1138 17.4368 7.51349 6.51713 -13.5018 2.03101
lowerback 15.1855 -4.46026 -5.46702
upperback 0.958836 -6.62445 2.94225
thorax -6.47644 -3.04791 7.55725
lowerneck -12.4555 0.68295 -7.17496
upperneck 9.11337 1.9261 2.03958
head 4.68117 0.822313 1.93628
rclavicle -6.44062e-014 1.86858e-014
rhumerus -19.5667 -18.9273 -66.7402
rradius 122.011
rwrist -13.8955
rhand 15.9327 15.3952
rfingers 7.12502
rthumb 40.7288 -9.60676
lclavicle -6.44062e-014 1.86858e-014
lhumerus -12.1609 -46.0537 102.334
lradius 101.185
lwrist 2.09844
lhand 2.39446 10.6481
lfingers 7.12502
lthumb 27.8818 38.5987
rfemur -37.9892 -5.33693 7.14376
rtibia 39.492
rfoot 2.42081 17.3051
rtoes 1.96384
lfemur 0.599215 -6.01875 -4.15009
ltibia 34.3776
lfoot 16.3871 -10.3157
ltoes -18.7489
